<svg width="40" height="40" viewBox="0 0 40 40" fill="none" xmlns="http://www.w3.org/2000/svg">
<path d="M35.0027 39.9988H4.98376C4.32661 40.0134 3.67346 39.8941 3.06489 39.6483C2.45632 39.4026 1.90533 39.0357 1.44617 38.5703C0.974592 38.108 0.60331 37.5554 0.355038 36.9463C0.106765 36.3372 -0.0132762 35.6843 0.00225694 35.0277V5.00118C-0.0181139 4.33971 0.0995947 3.68118 0.348032 3.06673C0.596469 2.45227 0.970297 1.8951 1.44617 1.43C1.90533 0.964675 2.45632 0.597744 3.06489 0.352004C3.67346 0.106263 4.32661 -0.0130352 4.98376 0.00152164H35.0027C35.6623 -0.0150108 36.3182 0.103326 36.9294 0.349124C37.5406 0.594923 38.0939 0.962891 38.5547 1.43C39.0252 1.89012 39.3959 2.44032 39.6442 3.04697C39.8925 3.65363 40.0131 4.304 39.9987 4.95833V34.9563C40.0142 35.6129 39.8942 36.2657 39.6459 36.8749C39.3976 37.484 39.0263 38.0366 38.5547 38.4989C38.1002 38.9789 37.5497 39.3602 36.9382 39.6184C36.3267 39.8766 35.6676 40.0062 35.0027 39.9988ZM32.9957 19.1002C32.8282 15.8949 31.4744 12.8625 29.1923 10.5811C26.9102 8.29973 23.8594 6.92881 20.6213 6.72964H19.0764C15.859 6.94392 12.8316 8.31363 10.5634 10.5812C8.29526 12.8488 6.94259 15.8581 6.75977 19.0431V20.6287C7.72238 27.9139 11.8279 32.0089 19.0764 32.9136H20.6502C23.8702 32.7127 26.9042 31.352 29.179 29.0884C31.4537 26.8248 32.8115 23.8153 32.9957 20.6287V19.1002ZM11.5536 27.2854C9.62623 25.2331 8.58938 22.5148 8.66574 19.7145V19.5145C12.4632 19.5388 16.2435 19.0093 19.8849 17.9432H20.0005C20.2754 18.6075 20.6397 19.2321 21.0834 19.8002C17.0966 21.0734 13.711 23.7326 11.5536 27.2854ZM19.2207 16.1004C15.8789 17.053 12.4179 17.534 8.94008 17.5289C9.27339 15.8535 9.99792 14.2783 11.0559 12.9291C12.1138 11.5798 13.4759 10.4939 15.0334 9.758C16.5495 11.792 17.9475 13.9095 19.2207 16.1004ZM24.2311 30.0852C22.7061 30.9639 20.9846 31.4548 19.2207 31.5137C18.0425 31.4874 16.8826 31.22 15.814 30.7283C14.7454 30.2366 13.7913 29.5313 13.0119 28.6567C14.9705 25.3607 18.0924 22.898 21.7765 21.7429C22.8919 24.4295 23.7148 27.2261 24.2311 30.0852ZM21.4444 15.4862C20.5491 13.8768 19.1678 11.696 17.3003 8.94377C18.2666 8.6939 19.2616 8.56905 20.2604 8.57237C21.5538 8.56938 22.835 8.82036 24.0296 9.31078C25.2243 9.80119 26.3087 10.5213 27.22 11.4293C25.7197 13.293 23.7175 14.6993 21.4444 15.4862ZM31.0753 19.7716C29.3786 19.4292 27.6521 19.2522 25.9205 19.2431C25.0458 19.2378 24.172 19.2999 23.307 19.4288C23.2204 19.1859 23.0471 18.8002 22.8017 18.3003C22.6111 17.946 22.447 17.5784 22.3107 17.2004C24.7308 16.305 26.8715 14.7979 28.5195 12.8292C30.1437 14.7658 31.0414 17.1982 31.0608 19.7145L31.0753 19.7716ZM26.1515 29.1567C25.6085 26.4614 24.8898 23.8036 24.0001 21.2001C24.8653 21.0718 25.7387 21.005 26.6136 21.0001C28.0855 20.9953 29.5484 21.2268 30.9453 21.6858C30.7077 23.1839 30.1575 24.6168 29.3297 25.8932C28.5019 27.1695 27.4147 28.2615 26.1371 29.0996L26.1515 29.1567Z" fill="#111111"/>
</svg>
