<svg width="40" height="40" viewBox="0 0 40 40" fill="none" xmlns="http://www.w3.org/2000/svg">
<path d="M40 36C40 38.2091 38.2091 40 36 40H4C1.79086 40 0 38.2091 0 36V4C0 1.79086 1.79086 0 4 0H36C38.2091 0 40 1.79086 40 4V36ZM23.6514 16.8926C22.9379 16.8926 22.2396 16.9862 21.6218 17.3025C21.3126 17.4607 20.8278 17.1174 20.4805 17.1172H17.7578C17.5979 17.1172 17.3731 17.3088 17.373 17.5332V27.302C17.373 27.3025 17.3729 27.3029 17.3726 27.3032C17.3722 27.3035 17.3721 27.304 17.3721 27.3044C17.3727 27.4959 17.5971 27.7197 17.7568 27.7197H20.5439C20.7683 27.7196 20.9931 27.5281 20.9932 27.3037V21.9863C20.9932 20.7369 21.3455 19.8076 22.7549 19.8076C23.8761 19.8077 24.1641 20.3525 24.1641 21.3457V27.3037C24.1641 27.4954 24.3244 27.7197 24.5488 27.7197H27.3672C27.5588 27.7197 27.7519 27.5282 27.752 27.3037V20.7051C27.752 18.078 26.1503 16.8926 23.6514 16.8926ZM12.665 17.1172C12.5052 17.1172 12.2804 17.3088 12.2803 17.5332V27.3027C12.2804 27.4944 12.4724 27.7188 12.665 27.7188H15.4512C15.6746 27.7188 15.8681 27.5272 15.8682 27.3027V17.5332C15.8681 17.277 15.7074 17.1172 15.4512 17.1172H12.665ZM14.0752 12.2158C13.0502 12.2158 12.2168 13.1127 12.2168 14.1377C12.2169 15.1944 13.0503 16.0273 14.0752 16.0273C15.1318 16.0272 15.997 15.1943 15.9971 14.1377C15.9971 13.1128 15.1319 12.2159 14.0752 12.2158Z" fill="#111111"/>
</svg>
