<svg width="140" height="72" viewBox="0 0 140 72" fill="none" xmlns="http://www.w3.org/2000/svg">
<path d="M81.426 55.3994C73.1304 53.2503 63.9008 51.984 54.1545 51.8213V0H81.426V55.3994ZM65.843 46.0859L69.7385 46.667V4.6543L65.843 4.4873V46.0859Z" fill="#111111"/>
<path d="M50.2589 38.3652L24.4493 41.4404L25.713 34.1504C29.4657 34.2696 35.6557 33.1872 38.5704 31.5781V22.4473H31.5577V16.8828H38.5704V6.23535C36.0304 5.37097 30.4161 5.25362 26.6876 5.37207V0H50.2589V38.3652Z" fill="#111111"/>
<path d="M19.0906 47.4989L21.4267 47.1594L21.4282 47.1965C34.7424 45.4794 46.1995 43.3303 50.2588 42.8371V51.8127C33.875 52.0362 18.9317 55.3845 7.40246 60.7924V7.29052C7.40246 3.60689 2.46749 0.895327 0 0H19.0906V47.4989Z" fill="#111111"/>
<path d="M119.998 0C117.535 0.893516 112.617 3.59571 112.596 7.26758V71.8008C110.106 69.1729 107.043 66.7304 103.499 64.5176C103.465 64.4964 103.431 64.4752 103.397 64.4541C102.875 64.1295 102.342 63.8096 101.799 63.4951C100.281 62.615 98.6832 61.7747 97.0122 60.9785V60.9805C93.4317 59.2749 89.5159 57.7686 85.3237 56.4961V0H119.998ZM97.0122 55.4287L100.908 57.6562V6.17578L97.0122 5.94434V55.4287Z" fill="#111111"/>
<path d="M124.006 35.4072C123.989 35.7375 124.002 36.0686 124.042 36.3974C122.948 36.225 121.62 36.0787 119.998 35.9002C121.602 35.7237 122.919 35.5771 124.006 35.4072ZM130.506 41.5881C130.325 42.6999 130.179 44.0642 129.998 45.7486C129.798 44.0625 129.637 42.6971 129.444 41.5847C129.797 41.6167 130.152 41.6175 130.506 41.5881ZM124.042 36.3974C127.835 36.9954 128.808 37.9091 129.444 41.5847C128.098 41.4625 126.786 40.8954 125.755 39.8805C124.764 38.9038 124.194 37.6702 124.042 36.3974ZM129.51 29.8132C128.87 33.8379 127.964 34.7881 124.006 35.4072C124.077 33.9946 124.66 32.6024 125.755 31.5236C126.803 30.4922 128.141 29.9226 129.51 29.8132ZM135.956 36.3905C135.805 37.6658 135.234 38.902 134.241 39.8805C133.198 40.907 131.868 41.4749 130.506 41.5881C131.105 37.8951 132.084 36.9885 135.956 36.3905ZM134.241 31.5236C135.326 32.5929 135.908 33.9702 135.988 35.3699C131.966 34.7114 131.05 33.7734 130.452 29.8104C131.833 29.9129 133.185 30.4835 134.241 31.5236ZM139.998 35.9002C138.381 36.0762 137.052 36.2212 135.956 36.3905C135.996 36.0516 136.007 35.7102 135.988 35.3699C137.078 35.5484 138.396 35.7084 139.998 35.9002ZM129.998 26.0518C130.16 27.542 130.296 28.7785 130.452 29.8104C130.138 29.7871 129.823 29.7881 129.51 29.8132C129.674 28.7781 129.822 27.54 129.998 26.0518Z" fill="url(#paint0_linear_904_1147)"/>
<defs>
<linearGradient id="paint0_linear_904_1147" x1="128.917" y1="32.7042" x2="135.608" y2="39.8994" gradientUnits="userSpaceOnUse">
<stop stop-color="#FF7957"/>
<stop offset="1" stop-color="#F3471C"/>
</linearGradient>
</defs>
</svg>
