<svg width="134" height="67" viewBox="0 0 134 67" fill="none" xmlns="http://www.w3.org/2000/svg">
<g style="mix-blend-mode:exclusion">
<path d="M69.4492 48.8477C62.8831 47.1466 55.5777 46.1444 47.8633 46.0156V5H69.4492V48.8477ZM57.1143 41.4766L60.1982 41.9365V8.68359L57.1143 8.55078V41.4766Z" fill="white"/>
<path d="M44.7798 35.3652L24.3521 37.7998L25.3521 32.0293C28.3226 32.1236 33.222 31.2669 35.5288 29.9932V22.7666H29.978V18.3633H35.5288V9.93457C33.5187 9.25033 29.0748 9.15822 26.1235 9.25195V5H44.7798V35.3652Z" fill="white"/>
<path d="M20.1101 42.5949L21.9591 42.3262L21.9604 42.3556C32.4985 40.9964 41.5668 39.2954 44.7797 38.9051V46.0092C31.812 46.1861 19.9844 48.8363 10.859 53.1166V10.7704C10.859 7.85481 6.95301 5.70864 5 5H20.1101V42.5949Z" fill="white"/>
<path d="M99.9783 5C98.0253 5.70864 94.1189 7.85495 94.1189 10.7705V61.8291C92.2916 59.9008 90.0752 58.0976 87.5261 56.4492C85.7563 55.3044 83.8258 54.2346 81.7537 53.249C78.9281 51.9053 75.8389 50.7193 72.533 49.7158V5H99.9783ZM81.7839 48.8701L84.8679 50.6328V9.8877L81.7839 9.70508V48.8701Z" fill="white"/>
</g>
<path d="M105.663 32.7151C105.64 33.1838 105.658 33.6537 105.714 34.1203C104.163 33.8757 102.279 33.6677 99.9783 33.4146C102.254 33.1641 104.122 32.9562 105.663 32.7151ZM114.883 41.4841C114.627 43.0612 114.419 44.9964 114.163 47.3854C113.88 44.9939 113.65 43.0572 113.377 41.4793C113.878 41.5248 114.382 41.5258 114.883 41.4841ZM105.714 34.1203C111.094 34.9685 112.474 36.2649 113.377 41.4793C111.468 41.3058 109.607 40.5005 108.145 39.0611C106.739 37.6757 105.93 35.9259 105.714 34.1203ZM113.47 24.7815C112.563 30.4894 111.277 31.837 105.663 32.7151C105.765 30.7116 106.592 28.7375 108.145 27.2074C109.631 25.7445 111.528 24.9369 113.47 24.7815ZM122.614 34.1106C122.4 35.9196 121.59 37.6732 120.181 39.0611C118.703 40.5173 116.815 41.3236 114.883 41.4841C115.733 36.245 117.121 34.959 122.614 34.1106ZM120.181 27.2074C121.721 28.7243 122.547 30.6777 122.66 32.6633C116.955 31.7293 115.654 30.3985 114.805 24.7774C116.765 24.9225 118.683 25.7316 120.181 27.2074ZM128.348 33.4146C126.054 33.6643 124.169 33.8704 122.614 34.1106C122.671 33.63 122.687 33.1459 122.66 32.6633C124.206 32.9165 126.076 33.1425 128.348 33.4146ZM114.163 19.4451C114.392 21.5592 114.584 23.3135 114.805 24.7774C114.361 24.7444 113.914 24.7459 113.47 24.7815C113.703 23.3131 113.913 21.5565 114.163 19.4451Z" fill="url(#paint0_linear_963_3630)"/>
<defs>
<linearGradient id="paint0_linear_963_3630" x1="112.63" y1="28.8812" x2="122.121" y2="39.0872" gradientUnits="userSpaceOnUse">
<stop stop-color="#FF7957"/>
<stop offset="1" stop-color="#F3471C"/>
</linearGradient>
</defs>
</svg>
