<svg width="40" height="40" viewBox="0 0 40 40" fill="none" xmlns="http://www.w3.org/2000/svg">
<path d="M35 0C37.7614 0 40 2.23858 40 5V35C40 37.7614 37.7614 40 35 40H5C2.23858 40 0 37.7614 0 35V5C0 2.23858 2.23858 0 5 0H35ZM20 23.5479L9 19.0479V27.875C9 28.1734 9.11598 28.4599 9.32227 28.6709C9.52844 28.8816 9.80813 28.9999 10.0996 29H29.9004C30.1919 28.9999 30.4716 28.8816 30.6777 28.6709C30.884 28.4599 31 28.1734 31 27.875V19.0479L20 23.5479ZM10.0996 11C9.80813 11.0001 9.52844 11.1184 9.32227 11.3291C9.11598 11.5401 9 11.8266 9 12.125V16.625L20 21.125L31 16.625V12.125C31 11.8266 30.884 11.5401 30.6777 11.3291C30.4716 11.1184 30.1919 11.0001 29.9004 11H10.0996Z" fill="#111111"/>
</svg>
